<?xml version="1.0" encoding="UTF-8" standalone="no"?>
<!-- Created with Inkscape (http://www.inkscape.org/) -->

<svg
   width="291.04166mm"
   height="127mm"
   viewBox="0 0 291.04166 127"
   version="1.1"
   id="svg1"
   xmlns="http://www.w3.org/2000/svg"
   xmlns:svg="http://www.w3.org/2000/svg">
  <defs
     id="defs1">
    <clipPath
       id="clip14_1016_2">
      <rect
         width="252"
         height="101.434"
         fill="#ffffff"
         transform="translate(2567,3293.28)"
         id="rect190"
         x="0"
         y="0" />
    </clipPath>
    <clipPath
       id="clip15_1016_2">
      <rect
         width="576"
         height="47.1936"
         fill="#ffffff"
         transform="translate(2869,3320.4)"
         id="rect191"
         x="0"
         y="0" />
    </clipPath>
  </defs>
  <g
     id="layer1"
     transform="translate(-119.85624,-134.93748)">
    <g
       id="g209"
       transform="matrix(0.26458333,0,0,0.26458333,-529.96042,-686.32917)">
      <rect
         x="2456"
         y="3104"
         width="1100"
         height="480"
         rx="40"
         fill="#0a0c2e"
         id="rect88" />
      <g
         clip-path="url(#clip14_1016_2)"
         id="g91">
        <path
           d="m 2780.97,3364.78 -35.37,-61.46 c -0.03,-0.07 -0.08,-0.11 -0.11,-0.18 -0.22,-0.38 -0.47,-0.73 -0.71,-1.09 -0.13,-0.18 -0.25,-0.38 -0.4,-0.57 -0.23,-0.32 -0.49,-0.63 -0.75,-0.95 -0.17,-0.21 -0.34,-0.42 -0.52,-0.62 -0.22,-0.24 -0.46,-0.47 -0.69,-0.72 -0.24,-0.23 -0.47,-0.47 -0.72,-0.7 -0.2,-0.17 -0.41,-0.34 -0.62,-0.52 -0.31,-0.25 -0.62,-0.51 -0.94,-0.75 -0.19,-0.13 -0.39,-0.27 -0.58,-0.39 -0.35,-0.24 -0.71,-0.49 -1.09,-0.71 -0.05,-0.03 -0.11,-0.08 -0.18,-0.11 -0.15,-0.09 -0.32,-0.17 -0.48,-0.24 -0.36,-0.19 -0.7,-0.38 -1.06,-0.55 -0.29,-0.13 -0.57,-0.25 -0.85,-0.36 -0.3,-0.12 -0.6,-0.25 -0.91,-0.36 -0.34,-0.12 -0.69,-0.22 -1.03,-0.33 -0.26,-0.08 -0.53,-0.16 -0.79,-0.22 -0.37,-0.09 -0.75,-0.17 -1.11,-0.25 -0.27,-0.05 -0.52,-0.1 -0.78,-0.13 -0.37,-0.05 -0.72,-0.1 -1.09,-0.13 -0.29,-0.02 -0.57,-0.06 -0.86,-0.07 -0.33,-0.01 -0.66,-0.02 -0.98,-0.02 -0.34,0 -0.67,0 -0.99,0.02 -0.28,0.01 -0.57,0.04 -0.86,0.07 -0.36,0.03 -0.73,0.08 -1.09,0.13 -0.27,0.05 -0.52,0.09 -0.79,0.13 -0.37,0.07 -0.74,0.15 -1.1,0.25 -0.27,0.06 -0.53,0.14 -0.8,0.22 -0.34,0.1 -0.68,0.21 -1.03,0.33 -0.3,0.11 -0.59,0.24 -0.89,0.36 -0.29,0.12 -0.58,0.23 -0.85,0.36 -0.36,0.17 -0.71,0.36 -1.06,0.55 -0.17,0.09 -0.33,0.15 -0.49,0.24 -0.07,0.03 -0.11,0.08 -0.18,0.11 -0.37,0.22 -0.73,0.47 -1.08,0.71 -0.19,0.13 -0.39,0.26 -0.58,0.4 -0.32,0.23 -0.63,0.5 -0.94,0.75 -0.21,0.18 -0.42,0.34 -0.61,0.53 -0.25,0.22 -0.48,0.46 -0.72,0.69 -0.23,0.24 -0.48,0.47 -0.7,0.72 -0.18,0.2 -0.34,0.42 -0.52,0.63 -0.25,0.31 -0.51,0.62 -0.75,0.94 -0.13,0.19 -0.27,0.39 -0.39,0.57 -0.24,0.36 -0.48,0.73 -0.7,1.1 -0.04,0.07 -0.08,0.11 -0.11,0.18 l -18.14,31.52 -17.73,-30.8 c -3.32,-6.39 -9.97,-10.75 -17.64,-10.75 h -70.72 c -10.98,-0.03 -19.89,8.91 -19.89,19.93 0,11.02 8.91,19.96 19.89,19.96 h 59.22 l 29.66,51.54 c 0.03,0.06 0.08,0.11 0.11,0.18 0.22,0.37 0.46,0.73 0.71,1.08 0.13,0.19 0.25,0.39 0.39,0.58 0.24,0.32 0.49,0.63 0.76,0.93 0.17,0.21 0.34,0.42 0.52,0.62 0.22,0.24 0.46,0.48 0.69,0.71 0.23,0.23 0.47,0.48 0.72,0.71 0.2,0.18 0.41,0.34 0.62,0.51 0.31,0.26 0.62,0.52 0.94,0.75 0.19,0.14 0.39,0.27 0.57,0.39 0.36,0.25 0.72,0.49 1.1,0.71 0.05,0.03 0.11,0.08 0.17,0.11 0.16,0.09 0.33,0.17 0.49,0.25 0.35,0.19 0.7,0.37 1.06,0.54 0.29,0.13 0.57,0.24 0.85,0.37 0.3,0.12 0.6,0.24 0.91,0.35 0.34,0.12 0.68,0.22 1.03,0.33 0.26,0.08 0.53,0.16 0.79,0.22 0.37,0.09 0.74,0.17 1.11,0.25 0.26,0.04 0.52,0.1 0.78,0.13 0.37,0.06 0.73,0.1 1.1,0.14 0.28,0.02 0.57,0.05 0.86,0.06 0.33,0.01 0.66,0.02 0.98,0.02 0.33,0 0.67,0 0.99,-0.02 0.28,-0.01 0.57,-0.03 0.86,-0.06 0.36,-0.04 0.73,-0.08 1.09,-0.14 0.27,-0.04 0.52,-0.09 0.79,-0.13 0.36,-0.07 0.74,-0.15 1.1,-0.25 0.27,-0.06 0.53,-0.14 0.8,-0.22 0.34,-0.1 0.68,-0.21 1.03,-0.33 0.31,-0.11 0.6,-0.23 0.9,-0.35 0.29,-0.13 0.58,-0.24 0.85,-0.37 0.37,-0.17 0.71,-0.35 1.07,-0.54 0.15,-0.09 0.32,-0.16 0.48,-0.25 0.07,-0.03 0.11,-0.08 0.18,-0.11 0.37,-0.22 0.73,-0.46 1.08,-0.71 0.19,-0.13 0.39,-0.25 0.58,-0.4 0.32,-0.23 0.63,-0.5 0.94,-0.75 0.21,-0.18 0.42,-0.33 0.61,-0.52 0.25,-0.22 0.48,-0.47 0.72,-0.7 0.24,-0.23 0.48,-0.47 0.7,-0.72 0.18,-0.2 0.34,-0.41 0.52,-0.62 0.25,-0.31 0.51,-0.62 0.75,-0.94 0.13,-0.19 0.27,-0.39 0.4,-0.58 0.24,-0.36 0.48,-0.72 0.71,-1.09 0.03,-0.06 0.07,-0.11 0.11,-0.18 l 18.13,-31.52 18.14,31.52 c 5.49,9.55 17.66,12.82 27.18,7.31 9.52,-5.51 12.78,-17.72 7.28,-27.26 z"
           fill="#007aff"
           id="path89" />
        <path
           d="m 2622.26,3394.72 c 10.99,0 19.9,-8.94 19.9,-19.96 0,-11.02 -8.91,-19.96 -19.9,-19.96 -10.98,0 -19.89,8.94 -19.89,19.96 0,11.02 8.91,19.96 19.89,19.96 z"
           fill="#007aff"
           id="path90" />
        <path
           d="m 2799.11,3333.27 c 10.98,0 19.89,-8.94 19.89,-19.96 0,-11.02 -8.91,-19.96 -19.89,-19.96 -10.99,0 -19.9,8.94 -19.9,19.96 0,11.02 8.91,19.96 19.9,19.96 z"
           fill="#007aff"
           id="path91" />
      </g>
      <g
         clip-path="url(#clip15_1016_2)"
         id="g101">
        <path
           d="m 2872.68,3329.96 h 6 c 2.03,0 3.67,1.65 3.67,3.68 v 29.63 c 0,2.03 1.65,3.67 3.68,3.67 h 2.46 c 2.03,0 3.68,-1.64 3.68,-3.67 v -29.63 c 0,-2.03 1.65,-3.68 3.68,-3.68 h 6.39 c 2.03,0 3.68,-1.65 3.68,-3.68 v -1.48 c 0,-2.03 -1.65,-3.68 -3.68,-3.68 h -29.56 c -2.03,0 -3.68,1.65 -3.68,3.68 v 1.48 c 0,2.03 1.65,3.68 3.68,3.68 z"
           fill="#ffffff"
           id="path92" />
        <path
           d="m 2955.75,3348.55 c 2.31,-1.31 4.14,-3.09 5.47,-5.34 1.33,-2.24 1.99,-4.74 1.99,-7.49 0,-2.75 -0.66,-5.28 -1.99,-7.46 -1.33,-2.18 -3.16,-3.92 -5.47,-5.21 -2.31,-1.28 -4.89,-1.93 -7.72,-1.93 h -16.62 c -2.03,0 -3.67,1.65 -3.67,3.68 v 38.47 c 0,2.02 1.64,3.67 3.67,3.67 h 2.14 c 2.03,0 3.68,-1.65 3.68,-3.67 v -9.08 c 0,-2.03 1.64,-3.68 3.67,-3.68 h 1.42 c 1.33,0 2.55,0.72 3.21,1.88 l 7.16,12.7 c 0.64,1.14 1.86,1.86 3.18,1.87 h 2.84 c 2.83,0.04 4.62,-3.04 3.2,-5.49 l -7.17,-12.41 c 0.35,-0.16 0.69,-0.3 1.03,-0.5 z m -3.01,-9.13 c -0.48,0.98 -1.17,1.74 -2.06,2.29 -0.9,0.54 -1.93,0.82 -3.11,0.82 h -6.67 c -2.03,0 -3.67,-1.65 -3.67,-3.68 v -5.54 c 0,-2.03 1.64,-3.68 3.67,-3.68 h 5.43 c 1.44,0 2.7,0.28 3.79,0.82 1.09,0.55 1.92,1.3 2.49,2.26 0.57,0.96 0.85,2.09 0.85,3.4 0,1.22 -0.24,2.33 -0.72,3.31 z"
           fill="#ffffff"
           id="path93" />
        <path
           d="m 3000.4,3323.46 -15.11,38.46 c -0.95,2.41 0.83,5.02 3.43,5.02 h 1.82 c 1.53,0 2.9,-0.95 3.44,-2.38 l 1.83,-4.86 c 0.53,-1.43 1.91,-2.38 3.44,-2.38 h 12.49 c 1.54,0 2.9,0.95 3.44,2.39 l 1.82,4.84 c 0.53,1.44 1.9,2.39 3.44,2.39 h 2.15 c 2.59,0 4.37,-2.59 3.43,-5.01 l -15,-38.46 c -0.55,-1.41 -1.91,-2.35 -3.43,-2.35 h -3.75 c -1.52,0 -2.87,0.93 -3.43,2.34 z m 4.57,26.01 c -2.57,0 -4.34,-2.57 -3.43,-4.98 l 2.24,-6.51 c 0.57,-1.66 2.93,-1.66 3.5,0 l 2.22,6.51 c 0.9,2.4 -0.87,4.96 -3.45,4.96 h -1.07 z"
           fill="#ffffff"
           id="path94" />
        <path
           d="M 3311.01,3323.53 3295.9,3362 c -0.95,2.41 0.83,5.02 3.43,5.02 h 1.82 c 1.53,0 2.9,-0.95 3.44,-2.38 l 1.83,-4.87 c 0.53,-1.42 1.91,-2.37 3.44,-2.37 h 12.49 c 1.54,0 2.9,0.95 3.44,2.39 l 1.82,4.84 c 0.53,1.44 1.9,2.39 3.44,2.39 h 2.15 c 2.59,0 4.37,-2.6 3.43,-5.01 l -15,-38.46 c -0.55,-1.41 -1.91,-2.35 -3.43,-2.35 h -3.75 c -1.52,0 -2.87,0.93 -3.43,2.33 z m 4.58,26.02 c -2.57,0 -4.34,-2.56 -3.43,-4.97 l 2.25,-6.51 c 0.56,-1.66 2.92,-1.66 3.49,0 l 2.22,6.51 c 0.9,2.4 -0.87,4.96 -3.45,4.96 h -1.06 z"
           fill="#ffffff"
           id="path95" />
        <path
           d="m 3059.47,3333.59 c 1.22,-1.24 2.65,-2.21 4.28,-2.91 1.64,-0.7 3.4,-1.05 5.27,-1.05 1.4,0 2.72,0.21 3.96,0.62 1.25,0.42 2.43,1.01 3.57,1.77 0.26,0.18 0.52,0.36 0.77,0.55 1.5,1.12 3.62,0.86 4.87,-0.53 l 1.4,-1.53 c 1.43,-1.59 1.2,-4.03 -0.46,-5.37 -0.56,-0.45 -1.15,-0.87 -1.77,-1.28 -1.77,-1.13 -3.71,-1.99 -5.83,-2.58 -2.11,-0.59 -4.26,-0.89 -6.44,-0.89 -3.36,0 -6.48,0.59 -9.36,1.77 -2.88,1.18 -5.39,2.83 -7.53,4.94 -2.14,2.12 -3.8,4.61 -4.97,7.46 -1.18,2.86 -1.77,5.97 -1.77,9.33 0,3.36 0.57,6.62 1.7,9.52 1.13,2.91 2.74,5.42 4.81,7.53 2.07,2.12 4.52,3.75 7.33,4.91 2.82,1.16 5.9,1.74 9.26,1.74 2.23,0 4.43,-0.28 6.61,-0.82 2.19,-0.55 4.16,-1.3 5.93,-2.26 0.52,-0.28 1.02,-0.58 1.48,-0.88 1.68,-1.11 2.15,-3.35 1.08,-5.04 l -0.91,-1.46 c -1.11,-1.74 -3.41,-2.19 -5.15,-1.09 -0.01,0 -0.03,0.01 -0.04,0.03 -1.11,0.69 -2.32,1.24 -3.63,1.63 -1.31,0.39 -2.66,0.59 -4.06,0.59 -2.14,0 -4.09,-0.34 -5.86,-1.01 -1.76,-0.68 -3.28,-1.64 -4.54,-2.88 -1.27,-1.25 -2.25,-2.75 -2.95,-4.52 -0.7,-1.77 -1.05,-3.74 -1.05,-5.92 0,-2.19 0.36,-4.09 1.08,-5.86 0.72,-1.77 1.69,-3.27 2.92,-4.52 z"
           fill="#ffffff"
           id="path96" />
        <path
           d="m 3120.14,3347.76 h 10.85 c 2.03,0 3.67,-1.64 3.67,-3.67 v -1.03 c 0,-2.03 -1.64,-3.67 -3.67,-3.67 h -10.85 c -2.03,0 -3.67,-1.65 -3.67,-3.68 v -2.27 c 0,-2.03 1.64,-3.68 3.67,-3.68 h 13.99 c 2.03,0 3.68,-1.64 3.68,-3.67 v -1.29 c 0,-2.03 -1.65,-3.68 -3.68,-3.68 h -23.61 c -2.03,0 -3.68,1.65 -3.68,3.68 v 38.47 c 0,2.03 1.65,3.67 3.68,3.67 h 24.07 c 2.03,0 3.67,-1.64 3.67,-3.67 v -1.29 c 0,-2.03 -1.64,-3.68 -3.67,-3.68 h -14.45 c -2.03,0 -3.67,-1.65 -3.67,-3.67 v -3.19 c 0,-2.03 1.64,-3.68 3.67,-3.68 z"
           fill="#ffffff"
           id="path97" />
        <path
           d="m 3205.96,3346.67 c 0,0 0,0.02 0,0.04 -0.48,1.48 -2.58,1.56 -3.17,0.12 -0.01,-0.04 -0.02,-0.06 -0.03,-0.09 l -6.18,-16.53 c -0.53,-1.44 -1.9,-2.39 -3.44,-2.39 h -3.04 c -1.52,0 -2.89,0.94 -3.43,2.37 l -6.3,16.55 c 0,0 -0.03,0.09 -0.05,0.13 -0.55,1.43 -2.6,1.41 -3.09,-0.04 0,0 0,-0.03 0,-0.04 l -6.69,-22.94 c -0.45,-1.57 -1.89,-2.65 -3.52,-2.65 h -2.36 c -2.46,0 -4.23,2.39 -3.51,4.75 l 11.71,38.46 c 0.47,1.55 1.89,2.61 3.51,2.61 h 2.29 c 1.52,0 2.87,-0.93 3.43,-2.34 l 5.82,-14.9 c 1.2,-3.09 5.55,-3.13 6.82,-0.07 l 6.25,15.04 c 0.57,1.37 1.91,2.27 3.39,2.27 h 2.16 c 1.62,0 3.05,-1.06 3.52,-2.6 l 11.81,-38.46 c 0.73,-2.37 -1.04,-4.76 -3.51,-4.76 h -2.22 c -1.63,0 -3.07,1.08 -3.53,2.65 l -6.62,22.81 z"
           fill="#ffffff"
           id="path98" />
        <path
           d="m 3256.96,3347.85 h 10.84 c 2.03,0 3.68,-1.65 3.68,-3.68 v -1.02 c 0,-2.03 -1.65,-3.68 -3.68,-3.68 h -10.84 c -2.03,0 -3.68,-1.64 -3.68,-3.67 v -2.27 c 0,-2.03 1.65,-3.68 3.68,-3.68 h 13.98 c 2.03,0 3.68,-1.65 3.68,-3.68 v -1.28 c 0,-2.03 -1.65,-3.68 -3.68,-3.68 h -23.61 c -2.02,0 -3.67,1.65 -3.67,3.68 v 38.46 c 0,2.03 1.65,3.68 3.67,3.68 h 24.07 c 2.03,0 3.68,-1.65 3.68,-3.68 v -1.28 c 0,-2.03 -1.65,-3.68 -3.68,-3.68 h -14.44 c -2.03,0 -3.68,-1.65 -3.68,-3.68 v -3.18 c 0,-2.03 1.65,-3.68 3.68,-3.68 z"
           fill="#ffffff"
           id="path99" />
        <path
           d="m 3375.24,3346.02 c -0.66,1.7 -1.22,3.19 -1.67,4.48 -0.46,1.29 -0.85,2.51 -1.18,3.67 -0.03,0.1 -0.06,0.22 -0.09,0.31 -0.21,-0.66 -0.41,-1.33 -0.63,-2.01 -0.29,-0.9 -0.61,-1.86 -0.98,-2.88 -0.37,-1.03 -0.82,-2.22 -1.35,-3.57 l -8.65,-22.45 c -0.54,-1.42 -1.91,-2.36 -3.42,-2.36 h -2.47 c -2.59,0 -4.37,2.62 -3.41,5.04 l 15.32,38.47 c 0.56,1.39 1.91,2.31 3.42,2.31 h 3.6 c 1.51,0 2.85,-0.92 3.41,-2.3 l 15.44,-38.47 c 0.97,-2.41 -0.81,-5.04 -3.41,-5.04 h -2.34 c -1.55,0 -2.92,0.97 -3.46,2.42 l -8.15,22.39 z"
           fill="#ffffff"
           id="path100" />
        <path
           d="m 3423.2,3354.71 v -3.18 c 0,-2.03 1.65,-3.68 3.68,-3.68 h 10.84 c 2.03,0 3.68,-1.65 3.68,-3.68 v -1.02 c 0,-2.03 -1.65,-3.68 -3.68,-3.68 h -10.84 c -2.03,0 -3.68,-1.64 -3.68,-3.67 v -2.27 c 0,-2.03 1.65,-3.68 3.68,-3.68 h 13.99 c 2.02,0 3.67,-1.65 3.67,-3.68 v -1.28 c 0,-2.03 -1.65,-3.68 -3.67,-3.68 h -23.61 c -2.03,0 -3.68,1.65 -3.68,3.68 v 38.46 c 0,2.03 1.65,3.68 3.68,3.68 h 24.06 c 2.03,0 3.68,-1.65 3.68,-3.68 v -1.28 c 0,-2.03 -1.65,-3.68 -3.68,-3.68 h -14.44 c -2.03,0 -3.68,-1.65 -3.68,-3.68 z"
           fill="#ffffff"
           id="path101" />
      </g>
    </g>
  </g>
</svg>
